<?xml version="1.0" encoding="UTF-8"?>
<!DOCTYPE svg PUBLIC "-//W3C//DTD SVG 1.1//EN" "http://www.w3.org/Graphics/SVG/1.1/DTD/svg11.dtd">
<!-- Creator: CorelDRAW Home & Student X8 -->
<svg xmlns="http://www.w3.org/2000/svg" xml:space="preserve" width="210mm" height="297mm" version="1.1" style="shape-rendering:geometricPrecision; text-rendering:geometricPrecision; image-rendering:optimizeQuality; fill-rule:evenodd; clip-rule:evenodd"
viewBox="0 0 21000 29700"
 xmlns:xlink="http://www.w3.org/1999/xlink">
 <defs>
  <style type="text/css">
   <![CDATA[
    .str0 {stroke:black;stroke-width:93.13;stroke-linecap:square;stroke-linejoin:round}
    .fil1 {fill:black}
    .fil2 {fill:url(#id0)}
    .fil3 {fill:url(#id1)}
    .fil0 {fill:url(#id2)}
    .fil4 {fill:url(#id3);fill-rule:nonzero}
   ]]>
  </style>
  <linearGradient id="id0" gradientUnits="userSpaceOnUse" x1="13843.4" y1="15982" x2="13386.6" y2="10687">
   <stop offset="0" style="stop-opacity:1; stop-color:#C9C1C1"/>
   <stop offset="1" style="stop-opacity:1; stop-color:white"/>
  </linearGradient>
  <linearGradient id="id1" gradientUnits="userSpaceOnUse" xlink:href="#id0" x1="6087.7" y1="14474.6" x2="5932.51" y2="11120.1">
  </linearGradient>
  <radialGradient id="id2" gradientUnits="userSpaceOnUse" gradientTransform="matrix(0.946692 -0 -0 1 544 0)" cx="10208.5" cy="7080.56" r="10962.6" fx="10208.5" fy="7080.56">
   <stop offset="0" style="stop-opacity:1; stop-color:#FF3322"/>
   <stop offset="1" style="stop-opacity:1; stop-color:#820000"/>
  </radialGradient>
  <radialGradient id="id3" gradientUnits="objectBoundingBox" xlink:href="#id2" cx="50%" cy="10.9998%" r="50%" fx="50%" fy="10.9998%">
  </radialGradient>
 </defs>
 <g id="Ebene_x0020_1">
  <metadata id="CorelCorpID_0Corel-Layer"/>
  <path class="fil0" d="M5173 17779c1279,1236 3001,2008 4871,2125 1654,103 3833,-819 5025,-1932 186,-174 364,-294 531,-469 1825,-943 1633,-7096 924,-8322 -375,-646 -501,-1022 -1634,-1967 -1133,-945 -3676,-2087 -5967,-1605 -643,135 -1403,387 -1945,659 -662,333 -1063,711 -1608,1152 -3079,2494 -2123,7385 -197,10359z"/>
  <path class="fil1" d="M11928 13567c-80,-631 12,-1428 240,-1930 872,-1918 2860,-747 3137,1490 97,780 -90,1839 -580,2367 -769,828 -1666,565 -2253,-278 -322,-463 -461,-996 -544,-1649zm-7356 -2448c114,114 224,188 336,319 772,898 1880,1498 3117,1691 -35,309 -237,617 -387,775 -116,122 -546,311 -773,387 -599,199 -1410,278 -2008,28 -642,-268 -914,-749 -854,-1431 28,-322 419,-1598 569,-1769zm-95 -2475c79,-134 165,-232 256,-359 135,-187 584,-677 721,-788 545,-441 973,-771 1635,-1104 542,-272 1177,-482 1820,-617 1754,-368 3411,24 4933,879 117,67 266,165 372,232l787 605 585 622c254,318 474,616 687,984 114,197 346,593 405,817l-97 -130c-166,-284 -387,-539 -622,-769 -70,-68 -121,-139 -209,-206 -507,-386 -1190,-861 -1859,-923 -940,-87 -1701,409 -2231,1107 -209,274 -374,551 -517,873 -431,969 -420,1724 -465,2717 -102,-149 -271,-323 -331,-569 7,621 29,700 323,1130 145,212 82,1777 1054,3330 586,937 1642,1724 2836,1409 470,-124 627,-307 942,-506 -167,175 -295,322 -482,497 -1192,1113 -3301,2000 -4955,1896 -1871,-116 -3523,-819 -4801,-2055l-453 -494c251,225 698,419 1153,470 514,58 982,-118 1320,-313 1274,-736 1799,-2282 2065,-3666 27,-144 81,-160 155,-263 459,-637 675,-1367 659,-2171 -6,-282 -53,-482 -74,-741 -56,97 -41,319 -89,597 -90,516 -225,1005 -508,1425 -52,-238 116,-1183 -287,-2477 -169,-544 -590,-1337 -1024,-1731 -861,-781 -1850,-1020 -2968,-329 -374,231 -441,364 -736,621zm13136 3116c-59,-818 -515,-2031 -841,-2602 -455,-800 -819,-1287 -1479,-1911 -1177,-1114 -3077,-1981 -4813,-1976 -607,1 -1061,13 -1585,113 -2144,409 -3904,1607 -5032,3449 -342,559 -836,1853 -936,2465 -108,662 -70,331 -86,463 -95,765 -70,1620 75,2355 439,2230 1857,4186 3865,5197 1560,786 3255,1051 5044,667 1519,-327 2841,-1116 3851,-2191 645,-688 1147,-1490 1530,-2489 301,-783 454,-1676 457,-2568 2,-540 -6,-361 -50,-972z"/>
  <path class="fil2" d="M11928 13567c83,653 222,1186 544,1649 587,843 1484,1106 2253,278 490,-528 677,-1587 580,-2367 -277,-2237 -2265,-3408 -3137,-1490 -228,502 -320,1299 -240,1930z"/>
  <path class="fil3" d="M4572 11119c-150,171 -541,1447 -569,1769 -60,682 212,1163 854,1431 598,250 1409,171 2008,-28 227,-76 657,-265 773,-387 150,-158 352,-466 387,-775 -1237,-193 -2345,-793 -3117,-1691 -112,-131 -222,-205 -336,-319z"/>
  <path class="fil1" d="M11782 17068c-298,-366 -209,-316 -395,-621 1,219 160,605 256,781 376,690 1156,1111 2069,1033l-704 -359c-533,-229 -844,-362 -1226,-834z"/>
  <path class="fil1" d="M6964 18172c383,-44 993,-526 1181,-723 206,-216 649,-786 667,-1180l-63 66c-17,26 -28,48 -43,75 -296,537 -791,919 -1247,1304 -102,87 -453,340 -495,458z"/>
  <path class="fil4 str0" d="M5652 19613c139,99 233,239 282,420 -20,-271 -126,-475 -319,-613 -205,-147 -447,-178 -724,-94 -278,85 -511,259 -700,524 -121,169 -202,349 -242,539 -39,191 -37,367 7,530 -20,-303 70,-594 269,-872 189,-265 423,-440 702,-526 278,-85 520,-55 725,92zm592 427c43,439 -82,863 -373,1271 -268,375 -599,622 -992,741 -393,119 -733,76 -1019,-128 -208,-149 -347,-361 -414,-634 35,367 184,644 445,830 288,206 628,249 1020,129 392,-119 722,-367 990,-742 167,-233 280,-480 338,-739 58,-259 60,-502 5,-728zm-488 -966c-288,-206 -628,-249 -1019,-129 -393,120 -722,366 -990,741 -238,334 -365,697 -380,1089 -15,447 135,783 452,1010 288,206 628,249 1020,129 392,-119 722,-366 990,-741 237,-332 363,-694 377,-1086 17,-448 -133,-786 -450,-1013zm-1586 658c190,-267 425,-442 704,-526 279,-84 520,-54 723,91 224,161 331,399 321,716 -13,280 -104,537 -273,773 -189,265 -423,440 -701,526 -279,85 -520,55 -723,-90 -224,-160 -330,-399 -318,-718 9,-279 98,-537 267,-772zm2101 865l-44 144 183 49 47 -142 -186 -51zm858 221c-32,75 -213,569 -541,1484 -76,213 -58,372 51,479 -13,-97 0,-197 39,-299l538 -1485 305 75 73 -287 -22 -11 57 -139 47 -187 -127 -35 -115 480 -305 -75zm1865 82l-234 467 -338 -168 -626 1522c-119,279 -258,470 -416,576 -222,151 -474,180 -753,88 -219,-73 -381,-185 -485,-338 86,247 277,419 575,518 280,93 531,63 754,-88 157,-105 296,-297 416,-575l625 -1524 342 170 288 -584 -148 -64zm-1215 119l39 -115 -160 -82 -40 117 161 80zm-1 -856c-141,343 -213,529 -215,559 53,27 144,74 272,139 0,2 -194,529 -580,1580 -114,314 -274,438 -479,370 -253,-84 -326,-275 -220,-572 276,-777 456,-1272 541,-1484l306 75 153 -621 -1205 -351 -199 658 314 82c-31,78 -175,559 -434,1444 -111,389 -84,703 81,943 105,153 266,265 482,337 280,92 532,63 757,-87 155,-106 294,-298 416,-575l622 -1525 341 170 291 -580 -1244 -562zm1377 735l10 135c79,-13 241,-14 488,0l4 -121c-206,-15 -374,-19 -502,-14zm338 3135l14 119 1128 46 67 -375 -121 -5 -45 252 -1043 -37zm811 -2956c333,57 579,161 738,312 -116,-218 -395,-365 -837,-440l-10 1084c33,1 67,1 100,0l9 -956zm1266 794c23,-184 -44,-364 -202,-538 86,136 120,273 103,410 -26,208 -161,378 -403,510 -242,131 -535,196 -877,193l-8 1233 100 4 7 -1109c342,3 635,-61 877,-193 242,-132 377,-302 403,-510zm-153 -201c16,-131 -18,-266 -103,-407 -140,-228 -357,-394 -653,-497 -172,-59 -455,-113 -850,-162 -85,-11 -168,-17 -249,-20 -221,-8 -410,9 -569,51l18 197c96,-16 293,-14 592,7l128 2714 -413 -15 32 418 1127 41 66 -376 -414 -33 8 -1212c342,1 634,-65 877,-197 242,-131 376,-301 403,-509zm-1276 293l6 -1084c220,37 410,99 571,188 226,127 329,280 308,460 -22,166 -140,287 -352,362 -154,54 -332,79 -533,74zm2896 580l-277 3c-108,0 -189,-1 -241,-4 -87,-3 -164,-12 -230,-28 124,54 328,80 613,77l277 -2c116,0 203,4 262,12 -65,-39 -200,-58 -404,-58zm198 -872l130 68 608 -1275 -505 -259 -9 21 374 191 -598 1254zm-173 -1158c-27,-7 -55,-14 -84,-21 28,12 54,24 76,35l8 -14zm580 1533c166,75 277,213 333,414 9,32 17,67 25,104 55,321 -24,581 -234,783 -127,121 -283,208 -471,260 -247,68 -464,75 -652,22l-178 319 123 73 193 -346c188,54 406,47 656,-23 185,-51 342,-138 471,-260 211,-201 287,-461 231,-781 -8,-37 -16,-72 -25,-104 -69,-249 -227,-403 -472,-461zm-779 1192c50,9 104,10 164,3l139 -246 -408 -242 -13 30 279 167 -161 288zm-363 -2084c-126,35 -223,95 -290,180 -81,101 -98,222 -52,362 52,151 149,235 292,252 -68,-41 -118,-109 -150,-207 -46,-140 -29,-260 52,-361 65,-85 161,-145 287,-180 75,-21 145,-31 209,-32l12 -22c-103,-33 -223,-30 -360,8zm617 797l-666 -15c-104,0 -183,-19 -238,-56 -62,-39 -109,-106 -141,-201 -46,-142 -30,-264 51,-365 66,-83 162,-141 287,-176 138,-38 258,-42 360,-11l-138 290 505 255 10 -16 597 -1257 -507 -256 -182 383c-223,-120 -485,-139 -785,-55 -376,104 -617,295 -725,574 -78,206 -81,440 -9,701 117,421 338,671 663,748 100,24 257,36 472,36l276 -3c150,-2 253,4 308,18 112,29 179,94 203,196 48,218 -84,371 -396,457 -108,30 -205,36 -291,20l162 -288 -403 -239 -577 1025 407 242 14 -30 178 -315c187,54 404,47 651,-22 188,-52 345,-138 471,-259 210,-202 287,-463 232,-786 -5,-36 -11,-69 -20,-101 -52,-186 -147,-317 -287,-394 -116,-62 -276,-95 -482,-100zm828 -1546l69 101 219 -88 -54 -109c-12,7 -91,38 -234,96zm709 -285l1136 1986c21,-10 58,-29 110,-58l-1073 -1867 291 -119 -187 -380 -125 45 137 278 -289 115zm1511 1941l128 358 -1080 574 63 120 1192 -637 -177 -481 -126 66zm-461 16c-362,-634 -742,-1296 -1139,-1985l292 -116 -188 -383 -1186 431 269 392 338 -134c1,2 356,697 1065,2085l-382 200 241 457 1191 -637 -176 -482 -325 172zm999 -415c55,27 99,67 131,120 39,63 55,132 48,207 -7,75 -40,132 -101,170 -24,15 -51,25 -79,31 85,41 163,39 233,-6 63,-40 98,-96 105,-171 8,-74 -8,-144 -49,-208 -72,-115 -168,-163 -288,-143zm-285 -5c-63,39 -98,96 -105,172 -7,75 10,144 49,207 39,62 95,106 166,132 72,26 138,20 198,-18 61,-38 95,-95 103,-171 8,-76 -8,-145 -47,-208 -39,-62 -95,-106 -166,-132 -72,-26 -138,-20 -198,18zm801 -387c56,25 102,63 136,115 42,61 61,129 57,205 -3,75 -35,133 -94,174 -24,15 -49,27 -77,34 87,37 164,32 232,-16 61,-42 94,-100 98,-175 5,-75 -14,-143 -58,-206 -76,-112 -174,-156 -294,-131zm-285 7c-60,42 -93,100 -97,176 -3,76 16,144 57,205 42,60 99,102 172,125 73,23 138,15 197,-26 59,-40 91,-99 96,-175 5,-76 -14,-145 -56,-206 -42,-61 -99,-102 -172,-125 -72,-23 -138,-15 -197,26z"/>
 </g>
</svg>
